<svg width="128" height="128" viewBox="0 0 128 128" fill="none" xmlns="http://www.w3.org/2000/svg">
<path d="M115.733 22.1334L10.6667 40L9.86669 34.6667C8.80002 28.8 12.8 23.4667 18.6667 22.4L102.933 8.26671C108.8 7.20005 114.133 11.2 115.2 17.0667L115.733 22.1334V22.1334ZM106.667 109.333H21.3334C15.4667 109.333 10.6667 104.533 10.6667 98.6667V40H117.333V98.6667C117.333 104.533 112.533 109.333 106.667 109.333Z" fill="#3F51B5"/>
<path d="M50.1333 17.0667L63.2 31.2001L73.8667 29.3334L60.5333 15.2001L50.1333 17.0667ZM29.0667 20.5334L42.1333 34.6667L52.8 32.8001L39.4667 18.9334L29.0667 20.5334ZM71.2 13.6001L84.2666 27.4667L94.6666 25.8667L81.6 11.7334L71.2 13.6001ZM92 10.1334L105.333 24.0001L115.733 22.1334L102.667 8.26672L92 10.1334Z" fill="#9FA8DA"/>
<path d="M20 34.6666C22.2091 34.6666 24 32.8758 24 30.6666C24 28.4575 22.2091 26.6666 20 26.6666C17.7909 26.6666 16 28.4575 16 30.6666C16 32.8758 17.7909 34.6666 20 34.6666Z" fill="#9FA8DA"/>
<path d="M106.667 40L96 56H106.667L117.333 40H106.667ZM85.3334 40L74.6667 56H85.3334L96 40H85.3334ZM64 40L53.3334 56H64L74.6667 40H64ZM42.6667 40L32 56H42.6667L53.3334 40H42.6667ZM21.3334 40L10.6667 56H21.3334L32 40H21.3334Z" fill="#9FA8DA"/>
</svg>