<svg width="46" height="46" viewBox="0 0 46 46" fill="none" xmlns="http://www.w3.org/2000/svg">
<path d="M21.0833 32.5833H24.9167V24.9166H32.5833V21.0833H24.9167V13.4166H21.0833V21.0833H13.4167V24.9166H21.0833V32.5833ZM23 42.1666C20.3486 42.1666 17.857 41.6632 15.525 40.6563C13.1931 39.6507 11.1646 38.2854 9.43959 36.5604C7.71459 34.8354 6.34929 32.8069 5.34368 30.475C4.33679 28.143 3.83334 25.6514 3.83334 23C3.83334 20.3486 4.33679 17.8569 5.34368 15.525C6.34929 13.193 7.71459 11.1646 9.43959 9.43956C11.1646 7.71456 13.1931 6.34862 15.525 5.34173C17.857 4.33612 20.3486 3.83331 23 3.83331C25.6514 3.83331 28.1431 4.33612 30.475 5.34173C32.807 6.34862 34.8354 7.71456 36.5604 9.43956C38.2854 11.1646 39.6507 13.193 40.6563 15.525C41.6632 17.8569 42.1667 20.3486 42.1667 23C42.1667 25.6514 41.6632 28.143 40.6563 30.475C39.6507 32.8069 38.2854 34.8354 36.5604 36.5604C34.8354 38.2854 32.807 39.6507 30.475 40.6563C28.1431 41.6632 25.6514 42.1666 23 42.1666ZM23 38.3333C27.2806 38.3333 30.9063 36.8479 33.8771 33.8771C36.8479 30.9062 38.3333 27.2805 38.3333 23C38.3333 18.7194 36.8479 15.0937 33.8771 12.1229C30.9063 9.15206 27.2806 7.66665 23 7.66665C18.7195 7.66665 15.0938 9.15206 12.1229 12.1229C9.15209 15.0937 7.66668 18.7194 7.66668 23C7.66668 27.2805 9.15209 30.9062 12.1229 33.8771C15.0938 36.8479 18.7195 38.3333 23 38.3333Z" fill="#3F51B5"/>
</svg>
