<svg width="46" height="46" viewBox="0 0 87 87" fill="none" xmlns="http://www.w3.org/2000/svg">
<path d="M21.75 79.75C19.7562 79.75 18.0501 79.0407 16.6315 77.6221C15.2105 76.2011 14.5 74.4938 14.5 72.5V14.5C14.5 12.5062 15.2105 10.7989 16.6315 9.37787C18.0501 7.95929 19.7562 7.25 21.75 7.25H50.75L72.5 29V40.2375L43.5 69.1469V79.75H21.75ZM50.75 79.75V72.0469L69.4187 53.2875L77.2125 60.9L58.4531 79.75H50.75ZM79.8406 58.3625L72.1375 50.6594L74.675 48.1219C75.4 47.3969 76.276 47.0344 77.3031 47.0344C78.3302 47.0344 79.176 47.3969 79.8406 48.1219L82.3781 50.75C83.0427 51.475 83.375 52.3353 83.375 53.331C83.375 54.3291 83.0427 55.1604 82.3781 55.825L79.8406 58.3625ZM47.125 32.625H65.25L47.125 14.5V32.625Z" fill="green"/>
</svg>
