<svg width="60" height="60" viewBox="0 0 60 60" fill="none" xmlns="http://www.w3.org/2000/svg">
<path d="M54.25 10.375L4.99998 18.75L4.62498 16.25C4.12498 13.5 5.99998 11 8.74998 10.5L48.25 3.87498C51 3.37498 53.5 5.24998 54 7.99998L54.25 10.375V10.375ZM50 51.25H9.99998C7.24998 51.25 4.99998 49 4.99998 46.25V18.75H55V46.25C55 49 52.75 51.25 50 51.25Z" fill="#3F51B5"/>
<path d="M23.5 8L29.625 14.625L34.625 13.75L28.375 7.125L23.5 8ZM13.625 9.625L19.75 16.25L24.75 15.375L18.5 8.875L13.625 9.625ZM33.375 6.375L39.5 12.875L44.375 12.125L38.25 5.5L33.375 6.375ZM43.125 4.75L49.375 11.25L54.25 10.375L48.125 3.875L43.125 4.75Z" fill="#9FA8DA"/>
<path d="M9.375 16.25C10.4105 16.25 11.25 15.4105 11.25 14.375C11.25 13.3395 10.4105 12.5 9.375 12.5C8.33947 12.5 7.5 13.3395 7.5 14.375C7.5 15.4105 8.33947 16.25 9.375 16.25Z" fill="#9FA8DA"/>
<path d="M50 18.75L45 26.25H50L55 18.75H50ZM40 18.75L35 26.25H40L45 18.75H40ZM30 18.75L25 26.25H30L35 18.75H30ZM20 18.75L15 26.25H20L25 18.75H20ZM10 18.75L5 26.25H10L15 18.75H10Z" fill="#9FA8DA"/>
</svg>
